<svg id="svg" version="1.1" width="400" height="400" viewBox="0 0 400 400" xmlns="http://www.w3.org/2000/svg" xmlns:xlink="http://www.w3.org/1999/xlink" ><g id="svgg"><path id="path0" d="M26.353 26.353 L 24.800 27.906 24.800 200.000 L 24.800 372.094 26.353 373.647 L 27.906 375.200 200.000 375.200 L 372.094 375.200 373.647 373.647 L 375.200 372.094 375.200 200.000 L 375.200 27.906 373.647 26.353 L 372.094 24.800 200.000 24.800 L 27.906 24.800 26.353 26.353 M211.169 76.431 L 212.400 77.662 212.400 131.217 L 212.400 184.773 213.813 186.187 L 215.227 187.600 268.783 187.600 L 322.338 187.600 323.569 188.831 L 324.800 190.062 324.800 200.000 L 324.800 209.938 323.569 211.169 L 322.338 212.400 268.783 212.400 L 215.227 212.400 213.813 213.813 L 212.400 215.227 212.400 268.783 L 212.400 322.338 211.169 323.569 L 209.938 324.800 200.000 324.800 L 190.062 324.800 188.831 323.569 L 187.600 322.338 187.600 268.783 L 187.600 215.227 186.187 213.813 L 184.773 212.400 131.217 212.400 L 77.662 212.400 76.431 211.169 L 75.200 209.938 75.200 200.000 L 75.200 190.062 76.431 188.831 L 77.662 187.600 131.217 187.600 L 184.773 187.600 186.187 186.187 L 187.600 184.773 187.600 131.217 L 187.600 77.662 188.831 76.431 L 190.062 75.200 200.000 75.200 L 209.938 75.200 211.169 76.431 " stroke="none" fill="#fcfcfc" fill-rule="evenodd"></path><path id="path1" d="M0.000 200.000 L 0.000 400.000 200.000 400.000 L 400.000 400.000 400.000 200.000 L 400.000 0.000 200.000 0.000 L 0.000 0.000 0.000 200.000 M373.647 26.353 L 375.200 27.906 375.200 200.000 L 375.200 372.094 373.647 373.647 L 372.094 375.200 200.000 375.200 L 27.906 375.200 26.353 373.647 L 24.800 372.094 24.800 200.000 L 24.800 27.906 26.353 26.353 L 27.906 24.800 200.000 24.800 L 372.094 24.800 373.647 26.353 M188.831 76.431 L 187.600 77.662 187.600 131.217 L 187.600 184.773 186.187 186.187 L 184.773 187.600 131.217 187.600 L 77.662 187.600 76.431 188.831 L 75.200 190.062 75.200 200.000 L 75.200 209.938 76.431 211.169 L 77.662 212.400 131.217 212.400 L 184.773 212.400 186.187 213.813 L 187.600 215.227 187.600 268.783 L 187.600 322.338 188.831 323.569 L 190.062 324.800 200.000 324.800 L 209.938 324.800 211.169 323.569 L 212.400 322.338 212.400 268.783 L 212.400 215.227 213.813 213.813 L 215.227 212.400 268.783 212.400 L 322.338 212.400 323.569 211.169 L 324.800 209.938 324.800 200.000 L 324.800 190.062 323.569 188.831 L 322.338 187.600 268.783 187.600 L 215.227 187.600 213.813 186.187 L 212.400 184.773 212.400 131.217 L 212.400 77.662 211.169 76.431 L 209.938 75.200 200.000 75.200 L 190.062 75.200 188.831 76.431 " stroke="none" fill="#54ac34" fill-rule="evenodd"></path></g></svg>