<?xml version="1.0" encoding="UTF-8"?>
<svg id="Layer_1" data-name="Layer 1" xmlns="http://www.w3.org/2000/svg" viewBox="0 0 544.22 544.22">
  <defs>
    <style>
      .cls-1 {
        fill: #54ac34;
      }
    </style>
  </defs>
  <path class="cls-1" d="m272.11,0C2.1,0,0,121.83,0,272.11s2.1,272.11,272.11,272.11,272.11-121.83,272.11-272.11S542.12,0,272.11,0Zm142.84,272.11v142.84H129.27V129.27h285.69v142.84Z"/>
  <path class="cls-1" d="m149.2,146.98l-1.11,1.11-1.11,1.11v245.82l1.11,1.11,1.11,1.11h245.82l1.11-1.11,1.11-1.11v-245.82l-1.11-1.11-1.11-1.11h-245.82Zm130.89,36.88l.88.88v76.5l1.01,1.01,1.01,1.01h76.5l.88.88.88.88v14.2l-.88.88-.88.88h-76.5l-1.01,1.01-1.01,1.01v76.5l-.88.88-.88.88h-14.2l-.88-.88-.88-.88v-76.5l-1.01-1.01-1.01-1.01h-76.5l-.88-.88-.88-.88v-14.2l.88-.88.88-.88h76.5l1.01-1.01,1.01-1.01v-76.5l.88-.88.88-.88h14.2l.88.88Z"/>
</svg>